<?xml version="1.0" standalone="no"?><!DOCTYPE svg PUBLIC "-//W3C//DTD SVG 1.1//EN" "http://www.w3.org/Graphics/SVG/1.1/DTD/svg11.dtd"><svg class="icon" height="512" viewBox="0 0 1024 1024" version="1.1" xmlns="http://www.w3.org/2000/svg"><path d="M512 0C230.4 0 0 230.4 0 512s230.4 512 512 512 512-230.4 512-512S793.6 0 512 0z m0 992c-262.4 0-480-217.6-480-480S249.6 32 512 32s480 217.6 480 480-217.6 480-480 480z m363.34592-249.01632c0-48.80896-4.5824-91.45856-18.83136-142.16192s-45.29664-92.8768-88.05376-113.73056l41.73312-106.61888h-108.91776c9.15968-25.1136 12.7232-50.23232 10.17856-75.81696 65.65888-12.79488 98.7392-27.96032 98.7392-45.4912 0-18.00704-35.63008-33.64352-106.88512-46.91456-5.59616-19.4304-14.24896-40.75008-25.9584-63.49824-23.41376-45.4912-44.78976-71.552-74.81856-71.552-10.17856 0-24.43264 4.74112-42.752 14.68928-18.32448 9.95328-32.57344 14.68928-42.752 14.68928-10.17856 0-24.43264-4.74112-42.752-14.68928-18.32448-9.95328-32.57344-14.68928-42.752-14.68928-14.76096 0-27.99104 5.68832-38.6816 17.53088-23.92064 26.53696-50.38592 78.18752-62.09536 117.51936-71.25504 13.26592-106.88512 28.90752-106.88512 46.91456 0 17.53088 33.08544 32.69632 98.7392 45.4912-0.50688 6.15936-1.01888 11.37152-1.01888 15.16544 0 20.3776 3.56352 40.27904 11.19744 60.65664H223.86688l45.80864 104.24832c-17.81248 8.05376-33.59232 19.90144-47.3344 35.06688-27.48416 30.80192-41.73312 64.44544-51.4048 107.56608C161.26464 670.95552 158.72 704.59904 158.72 742.98368c0 76.29312 53.94944 122.73152 135.89504 122.73152h444.84096c81.94048 0 135.88992-46.4384 135.88992-122.73152z m-211.72736-416.52736c-0.50688 5.68832-1.52576 9.95328-2.03776 12.79488-0.50688 0.9472-2.03776 1.8944-3.56352 2.8416-4.0704 2.37056-4.0704 4.26496-7.63392 14.68928-2.03776 5.21216-3.05152 8.52992-3.56352 9.95328-1.01888 2.37056-6.61504 13.74208-8.14592 16.11264-2.03776 2.37056-7.12704 10.90048-10.69056 12.79488-2.03776 1.42336-4.5824 2.8416-7.12704 4.74112-3.05152 1.8944-6.10816 3.31776-9.15968 3.7888-6.10816 1.42336-14.24896 2.8416-22.90176 2.8416-12.21632 0-22.39488-1.8944-30.0288-6.15936-15.77984-7.58272-20.35712-19.4304-23.92064-30.32576-3.56352-10.90048-7.12704-19.90144-14.76096-19.90144h-6.10816c-7.63392 0-11.70432 9.00096-14.76096 19.90144-1.52576 5.21216-4.0704 10.90048-7.12704 16.11264-6.61504 11.37152-22.39488 20.3776-46.82752 20.3776-4.5824 0-8.6528-0.47616-12.21632-0.9472-8.14592-1.42336-13.74208-1.8944-19.34336-5.68832-3.05152-1.8944-5.59616-3.31776-7.12704-4.74112-2.03776-0.9472-4.0704-2.8416-6.10816-6.15936-4.5824-6.15936-5.08928-6.63552-9.15968-14.68928s-3.56352-7.58272-7.12704-18.00704c-4.0704-10.42432-4.0704-12.31872-7.63392-14.68928-2.03776-0.9472-3.56352-1.8944-4.0704-2.8416-0.50688-2.8416-1.52576-7.10656-2.03776-12.79488 0.50688-1.42336 1.52576-2.37056 2.03776-2.8416 3.56352-2.37056 19.85024-3.7888 48.86016-3.7888 23.92064 0 51.9168 2.8416 84.99712 9.00096 2.54464 0.47616 6.10816 0.9472 10.69056 0.9472s8.14592-0.47616 10.69056-0.9472c33.08544-6.15936 61.07648-9.00096 84.99712-9.00096 29.00992 0 45.29664 1.42336 48.86016 3.7888 0.51712 0.46592 1.536 1.41312 2.048 2.83648z m-130.29888 266.31168l48.86016-60.65664 65.14688-30.32576-65.14688 303.27296-48.86016-212.29056z m-146.58048-90.9824l65.14688 30.32576 48.86016 60.65664-48.86016 212.29056-65.14688-303.27296z" fill="#2c2c2c" /></svg>